<svg width="397" height="92" viewBox="0 0 397 92" fill="none" xmlns="http://www.w3.org/2000/svg">
<path fill-rule="evenodd" clip-rule="evenodd" d="M43.419 0.583093C42.478 3.39309 40.977 4.68109 35.11 7.71009C29.577 10.5661 28.349 12.3081 29.324 15.9171C29.632 17.0561 29.681 17.0831 30.605 16.6151C37.652 13.0511 49.627 13.0751 56.671 16.6691C57.518 17.1011 57.45 17.1391 57.765 16.0571C58.832 12.3861 57.656 10.6341 52.25 7.83709C46.398 4.80909 44.848 3.55809 43.853 1.05909C43.588 0.394093 43.51 0.309093 43.419 0.583093ZM336.25 5.60909C335.517 6.02609 332.592 7.64209 329.75 9.20009C323.383 12.6921 323.836 12.2381 325.654 13.2981C327.417 14.3271 327.251 14.3121 329.202 13.6051C330.053 13.2971 332.55 12.3931 334.75 11.5981C340.234 9.61509 340.668 9.44209 340.655 9.25109C340.632 8.90109 338.043 4.91509 337.819 4.88409C337.689 4.86509 336.983 5.19209 336.25 5.60909ZM178.835 8.59609C175.857 10.4631 173.4 12.0511 173.375 12.1261C173.312 12.3131 176.294 14.0001 176.688 14.0001C176.864 14.0001 178.487 13.3931 180.295 12.6511C184.6 10.8841 183.939 10.8911 188.134 12.5751C190.087 13.3591 191.807 14.0001 191.957 14.0001C192.281 14.0001 195.333 12.3361 195.333 12.1591C195.333 12.0921 193.965 11.1891 192.292 10.1531C190.619 9.11609 188.275 7.65709 187.083 6.90909C185.892 6.16209 184.767 5.47209 184.583 5.37609C184.299 5.22809 183.454 5.70109 178.835 8.59609ZM22.29 10.0131C22.416 11.4051 21.99 12.8351 20.899 14.6821C20.405 15.5181 20 16.2321 20 16.2681C20 16.3041 20.506 16.3331 21.125 16.3331C22.56 16.3341 23.939 16.9521 25.188 18.1561C25.672 18.6231 26.111 18.9851 26.164 18.9611C26.216 18.9371 26.938 18.5211 27.769 18.0371L29.278 17.1571L28.955 16.2031C28.444 14.6961 28.596 12.6361 29.301 11.5011C29.594 11.0301 29.833 10.6231 29.833 10.5981C29.833 10.5721 28.877 10.5581 27.708 10.5671C25.216 10.5861 24.154 10.3621 23.008 9.57309L22.2 9.01709L22.29 10.0131ZM64.246 9.50309C63.23 10.3111 62.074 10.5721 59.538 10.5671C58.322 10.5641 57.35 10.6041 57.379 10.6561C58.429 12.5091 58.71 14.0911 58.284 15.7521C58.143 16.3011 58.003 16.8481 57.972 16.9681C57.94 17.0951 58.567 17.5621 59.483 18.0931L61.05 19.0011L61.937 18.1631C63.207 16.9611 64.615 16.3341 66.042 16.3331C67.343 16.3331 67.321 16.3671 66.658 15.4041C65.411 13.5921 64.917 12.2111 64.917 10.5421C64.917 9.69409 64.908 9.00009 64.898 9.00009C64.888 9.00009 64.594 9.22609 64.246 9.50309ZM40.777 16.2921C40.735 16.3601 40.847 18.3281 41.025 20.6641L41.35 24.9121L40.8 25.3681C39.976 26.0521 39.896 25.9811 39.687 24.3751C39.154 20.2761 38.653 16.7801 38.582 16.6641C38.511 16.5491 37.184 16.7611 37.033 16.9111C36.976 16.9681 37.394 19.4481 38.492 25.5831C39.081 28.8691 39.147 30.0921 38.729 29.9321C38.58 29.8741 38.353 29.9151 38.225 30.0211C37.923 30.2711 37.934 30.2931 37.617 28.8331C37.467 28.1461 36.999 26.1211 36.577 24.3331C36.155 22.5461 35.631 20.3061 35.413 19.3551C34.943 17.3091 35.006 17.3961 34.175 17.6451C33.265 17.9171 33.256 17.7071 34.332 21.5011C34.865 23.3801 35.764 26.5671 36.33 28.5831C36.897 30.6001 37.729 33.5521 38.179 35.1421C39.034 38.1611 39.048 38.3331 38.444 38.3331C38.114 38.3331 37.967 38.0131 37.05 35.2921C34.087 26.5021 31.497 18.9411 31.422 18.8661C31.375 18.8191 31.03 18.9201 30.655 19.0891C29.851 19.4511 29.846 19.3611 30.825 21.8331C31.206 22.7961 31.659 23.9581 31.831 24.4171C32.004 24.8751 33.28 28.1371 34.668 31.6671C37.501 38.8681 37.407 38.5651 36.826 38.6331C36.479 38.6731 36.347 38.5671 36.096 38.0491C35.747 37.3271 32.973 31.2261 31.414 27.7501C27.765 19.6141 28.207 20.3581 27.356 20.9221L26.681 21.3681L28.485 24.8921C29.477 26.8311 31.496 30.7871 32.971 33.6851L35.654 38.9521L35.222 39.1491C34.985 39.2571 34.77 39.3241 34.745 39.2981C34.72 39.2721 34.005 38.0501 33.155 36.5831C32.306 35.1171 30.698 32.3421 29.583 30.4171C28.467 28.4921 27.01 25.9601 26.345 24.7921C24.989 22.4071 25.115 22.5111 24.348 23.1481L23.778 23.6201L26.514 27.8961C28.019 30.2481 29.55 32.6481 29.917 33.2301C30.283 33.8121 31.365 35.5061 32.321 36.9951C34.077 39.7301 34.23 40.1651 33.482 40.2881C33.346 40.3111 31.138 37.3631 28.118 33.1221C25.295 29.1591 22.843 25.7301 22.669 25.5011L22.354 25.0851L21.843 25.5741C21.563 25.8421 21.333 26.1291 21.333 26.2111C21.333 26.2931 23.924 29.6571 27.091 33.6851C30.257 37.7141 32.884 41.1041 32.928 41.2181C33.081 41.6191 32.556 42.1201 32.283 41.8331C32.152 41.6961 29.399 38.5461 26.164 34.8331C22.93 31.1211 20.214 28.0081 20.129 27.9171C19.953 27.7261 19.169 28.6011 19.167 28.9891C19.167 29.1211 19.786 29.8711 20.544 30.6561C21.301 31.4411 23.533 33.7691 25.502 35.8281C27.472 37.8881 29.796 40.3131 30.667 41.2161C32.227 42.8351 32.488 43.2571 32.219 43.7301C32.075 43.9841 32.418 44.2931 22.667 35.1251C17.575 30.3381 17.955 30.6081 17.518 31.4641L17.196 32.0951L24.272 38.1731C28.164 41.5151 31.5 44.3791 31.685 44.5361C31.916 44.7321 32.005 44.9781 31.969 45.3221L31.917 45.8231L30.476 44.7031C29.684 44.0871 27.997 42.7841 26.726 41.8071C25.456 40.8301 22.66 38.6741 20.513 37.0151C18.366 35.3571 16.525 34.0001 16.421 34.0001C16.263 34.0001 15.833 34.8831 15.833 35.2081C15.833 35.2971 17.138 36.2391 20.667 38.6941C30.174 45.3091 31.833 46.5361 31.833 46.9481C31.833 47.5121 32.443 47.8561 23.384 42.1841C18.976 39.4251 15.293 37.1671 15.199 37.1671C15.043 37.1671 14.727 38.4661 14.858 38.5671C14.89 38.5921 15.592 38.9901 16.417 39.4531C19.957 41.4381 24.117 43.7851 27.333 45.6131C28.296 46.1601 29.665 46.9341 30.375 47.3331C31.407 47.9131 31.667 48.1371 31.667 48.4461C31.667 48.9561 32.592 49.3681 22.979 44.5811C16.691 41.4501 14.404 40.3841 14.305 40.5391C14.015 40.9981 14.151 41.8361 14.542 41.9861C14.748 42.0651 16.829 42.9741 19.167 44.0051C32.069 49.6971 31.656 49.4951 31.355 49.9711C31.241 50.1511 31.097 50.1411 30.566 49.9171C30.209 49.7651 27.967 48.9021 25.583 47.9971C23.2 47.0921 20.35 46.0061 19.25 45.5831C13.378 43.3261 13.796 43.4211 13.865 44.3621L13.917 45.0571L22.458 47.8721C30.669 50.5781 31.426 50.8841 30.831 51.2521C30.737 51.3091 30.006 51.1671 29.206 50.9361C26.304 50.0981 14.235 46.8331 14.037 46.8331C13.912 46.8331 13.833 47.0831 13.833 47.4811V48.1291L16.042 48.6451C18.301 49.1721 19.54 49.4521 23.917 50.4251C30.586 51.9081 30.514 51.8891 30.462 52.1581C30.379 52.5981 29.945 52.5501 22.409 51.2671C13.321 49.7201 14.261 49.8261 14.201 50.3331C14.097 51.2221 14.1 51.2231 21.917 52.1681C25.95 52.6551 29.32 53.1151 29.405 53.1901C30.18 53.8721 26.574 53.7941 15.95 52.8981L14.649 52.7891L14.764 53.2691C14.971 54.1331 15.061 54.1651 17.312 54.1881C18.47 54.1991 20.504 54.2551 21.833 54.3131L24.25 54.4171L24.192 54.8331C24.16 55.0631 24.108 55.2781 24.075 55.3111C24.043 55.3451 22.162 55.4391 19.896 55.5211C17.63 55.6021 15.737 55.7071 15.69 55.7551C15.391 56.0531 17.114 59.6061 18.758 62.0831C32.069 82.1371 61.89 79.0851 71.234 56.7131C71.935 55.0341 72.269 55.1671 67.333 55.1671C63.119 55.1671 62.999 55.1571 62.975 54.8331C62.961 54.6501 62.942 54.4061 62.933 54.2921C62.921 54.1331 64.028 54.0411 67.536 53.9091C70.076 53.8131 72.186 53.7001 72.225 53.6591C72.263 53.6171 72.349 53.3281 72.416 53.0161L72.538 52.4481L71.061 52.5551C70.248 52.6141 67.309 52.8621 64.53 53.1071C59.529 53.5471 58.036 53.5411 57.886 53.0801C57.853 52.9771 59.145 52.7281 61.124 52.4541C74.087 50.6631 72.992 50.8951 72.997 49.9381C73 49.4851 72.97 49.4641 72.458 49.5691C72.16 49.6301 70.529 49.9351 68.833 50.2471C63.901 51.1541 59.512 51.9681 58.211 52.2171C57.087 52.4321 56.986 52.4271 56.73 52.1441C56.398 51.7771 56.11 51.8841 59.75 51.0181C61.308 50.6471 64.008 49.9991 65.75 49.5781C67.492 49.1571 69.851 48.5891 70.994 48.3171C73.166 47.7991 73.327 47.7061 73.331 46.9581C73.334 46.3411 73.392 46.3321 69.032 47.5971C54.69 51.7541 56.104 51.3961 56.033 50.8951C55.994 50.6261 56.094 50.5131 56.449 50.4271C56.706 50.3651 59.954 49.2591 63.667 47.9701C67.379 46.6811 70.958 45.4391 71.621 45.2101C73.175 44.6721 73.322 44.5491 73.215 43.8751C73.102 43.1621 73.569 43.0311 67.196 45.5671C64.109 46.7951 60.518 48.2221 59.217 48.7381C57.915 49.2541 56.592 49.7841 56.277 49.9161C55.735 50.1431 55.698 50.1371 55.613 49.8121C55.509 49.4161 54.916 49.7141 65.167 45.0121C73.77 41.0661 72.929 41.5341 72.859 40.7401C72.827 40.3791 72.775 40.0571 72.743 40.0241C72.712 39.9911 71.201 40.7321 69.385 41.6711C67.569 42.6101 65.033 43.9201 63.75 44.5831C62.467 45.2461 60.097 46.4731 58.484 47.3091C56.871 48.1451 55.502 48.7801 55.442 48.7201C55.099 48.3771 55.488 47.9971 57.2 47.0001C58.223 46.4041 59.44 45.6901 59.905 45.4131C60.37 45.1371 62.288 44.0171 64.167 42.9251C71.626 38.5931 72.357 38.1371 72.26 37.8821C72.208 37.7461 72.12 37.4551 72.065 37.2351C71.922 36.6661 72.089 36.5821 67.725 39.4061C65.539 40.8201 62.625 42.7001 61.25 43.5841C59.875 44.4671 58.006 45.6721 57.097 46.2611C55.248 47.4601 55.167 47.4891 55.167 46.9511C55.167 46.6451 55.912 46.0321 58.958 43.8371C72.311 34.2131 71.349 34.9971 70.887 34.1241L70.583 33.5501L67.744 35.8171C54.048 46.7491 55 46.0361 55 45.3561C55 44.8981 58.715 41.4891 68.445 33.0201C69.8 31.8401 69.809 31.8191 69.32 31.0161L68.974 30.4491L67.195 32.1851C66.217 33.1401 64.216 35.0821 62.748 36.5021C61.28 37.9221 58.941 40.1971 57.551 41.5591C56.154 42.9281 54.944 43.9851 54.846 43.9241C54.288 43.5801 54.834 42.9041 61.251 36.0091C64.871 32.1171 67.831 28.8551 67.827 28.7591C67.824 28.6621 67.634 28.3581 67.406 28.0831L66.99 27.5831L66.453 28.1711C66.158 28.4941 64.117 30.8881 61.917 33.4911C58.412 37.6371 54.768 41.9281 54.554 42.1621C54.441 42.2851 54.172 41.7841 54.169 41.4461C54.168 41.2791 55.01 40.0421 56.042 38.6971C58.024 36.1121 59.217 34.5451 63.235 29.2511L65.72 25.9771L65.211 25.4681C64.56 24.8171 64.636 24.7531 62.643 27.6331C61.711 28.9811 59.957 31.5081 58.746 33.2501C57.534 34.9921 56.027 37.1691 55.397 38.0881C54.766 39.0061 54.119 39.9421 53.958 40.1661L53.667 40.5741L53.319 40.2261L52.971 39.8781L57.986 31.7681C60.743 27.3071 63 23.5991 63 23.5271C63 23.3431 62.099 22.4991 61.908 22.5031C61.821 22.5051 61.29 23.3491 60.729 24.3781C60.167 25.4081 58.452 28.5001 56.917 31.2501C55.383 34.0001 53.743 36.9441 53.274 37.7921C52.403 39.3651 52.264 39.4901 51.798 39.1251C51.503 38.8931 51.038 39.9101 57.074 27.6031C59.126 23.4211 60.119 21.2271 60.015 21.1031C59.929 21.0011 59.632 20.7831 59.354 20.6201C58.742 20.2611 58.99 19.8651 57.084 24.2501C56.287 26.0831 55.387 28.1461 55.084 28.8331C54.781 29.5211 54.046 31.2081 53.451 32.5831C50.601 39.1671 50.899 38.5831 50.384 38.5831C50.033 38.5831 49.929 38.5111 49.965 38.2951C50.009 38.0321 55.131 24.2381 56.357 21.0831C56.641 20.3501 56.909 19.6611 56.951 19.5521C57.045 19.3111 55.679 18.5841 55.497 18.7781C55.426 18.8541 54.678 21.0541 53.835 23.6671C49.19 38.0681 49.068 38.4201 48.733 38.3611C48.19 38.2661 48.163 38.1051 48.492 36.9111C48.668 36.2721 49.46 33.3131 50.252 30.3331C51.044 27.3541 52.073 23.4921 52.539 21.7501C53.599 17.7901 53.596 17.8511 52.76 17.5591C51.935 17.2701 51.938 17.2651 51.526 19.1671C48.994 30.8401 49.107 30.3721 48.887 30.0711C48.759 29.8961 48.571 29.8411 48.346 29.9131C47.824 30.0781 47.877 29.4471 48.923 23.0561C49.983 16.5751 49.976 16.8101 49.095 16.6281C48.189 16.4411 48.249 16.2431 47.671 21.3271C47.071 26.6121 47.21 26.1841 46.329 25.4761L45.636 24.9191L45.744 23.0851C45.804 22.0761 45.924 20.3201 46.01 19.1841C46.257 15.9331 46.307 16.1671 45.352 16.1671H44.538L44.419 18.9581L44.299 21.7501L43.441 21.7291L42.583 21.7071L42.543 19.3121C42.489 16.1241 42.502 16.1671 41.59 16.1671C41.185 16.1671 40.819 16.2231 40.777 16.2921ZM19.167 16.9691C18.2 17.2911 17.133 17.9021 14 19.9301C9.75603 22.6761 7.37103 23.5431 5.08303 23.1711C4.01803 22.9981 4.02503 22.9741 4.82603 24.0241C6.19403 25.8191 6.57703 28.2681 6.30503 33.4691C5.94303 40.4061 6.99603 42.6351 10.934 43.2601L11.618 43.3681L11.801 41.9461C12.962 32.9551 17.642 25.1211 25.075 19.7291L25.564 19.3741L24.66 18.4931C23.024 16.9001 21.035 16.3481 19.167 16.9691ZM64.883 16.9771C63.88 17.3241 62.972 17.9181 62.158 18.7621L61.583 19.3571L62.082 19.7201C69.491 25.1211 74.448 33.4801 75.296 42.0001L75.421 43.2501L76.085 43.2201C77.538 43.1551 79.472 41.9371 80.241 40.6021C80.96 39.3551 81.049 38.3631 80.843 33.9411C80.554 27.7271 80.913 25.5511 82.533 23.6911C83.128 23.0091 83.132 23.0131 82 23.1661C79.629 23.4871 77.409 22.6791 73.167 19.9481C68.024 16.6381 66.964 16.2581 64.883 16.9771ZM270.583 16.7681C267.342 17.2401 266.32 17.4471 264.75 17.9481C255.231 20.9881 249.481 29.2931 250.495 38.5361C252.026 52.4881 265.38 59.1061 284.043 55.1621C285.303 54.8951 286.485 54.5971 286.669 54.4991C286.998 54.3231 287.002 54.1771 286.96 45.1181L286.917 35.9171L280.625 35.8731C277.165 35.8491 274.333 35.8781 274.333 35.9381C274.333 35.9971 274.639 36.3781 275.013 36.7831C276.255 38.1311 276.244 38.0651 276.302 44.4491L276.353 50.1481L275.718 50.2821C273.791 50.6901 271.06 50.3281 269.011 49.3931C261.441 45.9351 259.639 30.2061 266.214 24.9731C269.976 21.9801 276.87 21.9471 282.045 24.8991L283.339 25.6381L283.295 21.7041L283.25 17.7711L282.417 17.5621C279.918 16.9381 272.729 16.4561 270.583 16.7681ZM372.25 16.7661C358.28 18.7601 350.661 28.4461 353.253 40.9171C355.702 52.7031 369.001 59.2321 382.243 55.1471C400.374 49.5551 401.386 24.1171 383.721 17.9791C380.854 16.9831 375.038 16.3681 372.25 16.7661ZM221.298 17.2921L207.179 17.3351L207.016 17.9591C206.926 18.3031 206.474 20.0461 206.011 21.8331C205.548 23.6211 205.122 25.2521 205.065 25.4581C204.947 25.8851 205.331 25.9881 205.642 25.6131C206.704 24.3331 211.123 23.3941 214.292 23.7751L215.167 23.8801L215.165 37.2321C215.164 53.0031 215.175 52.8831 213.576 54.6531C213.259 55.0031 213 55.3381 213 55.3951C213 55.4531 216.487 55.5001 220.75 55.5001C225.012 55.5001 228.5 55.4371 228.5 55.3591C228.5 55.2821 228.343 55.0761 228.151 54.9031C227.553 54.3621 226.664 52.6721 226.371 51.5201C226.12 50.5321 226.09 49.0321 226.087 37.1741L226.083 23.9311L226.667 23.7971C229.873 23.0601 233.679 23.9131 234.636 25.5831C234.882 26.0121 235.086 25.7361 235.241 24.7691C235.301 24.3921 235.684 22.6381 236.092 20.8711C237.007 16.9071 237.005 17.1571 236.125 17.2071C235.735 17.2301 229.063 17.2681 221.298 17.2921ZM90.833 17.4691C90.833 17.5431 91.065 17.8251 91.349 18.0941C92.993 19.6551 93.02 19.9041 93.111 34.4171C93.221 51.9591 93.133 53.0221 91.438 54.7171C91.106 55.0501 90.833 55.3621 90.833 55.4111C90.833 55.4601 94.321 55.5001 98.583 55.5001C102.846 55.5001 106.333 55.4611 106.333 55.4131C106.333 55.3651 106.064 54.9341 105.736 54.4571C103.995 51.9261 104.003 52.0061 104.001 36.4361L104 23.1211L105.065 23.2071C109.205 23.5391 111.394 27.6731 110.26 33.0221C109.751 35.4231 106.878 38.8331 105.363 38.8331C105.255 38.8331 105.167 38.9081 105.167 39.0001C105.167 39.1721 106.709 39.2411 109.083 39.1741C116.784 38.9571 121.906 34.4611 121.906 27.9171C121.906 21.3091 117.778 17.9081 109.25 17.4911C105.454 17.3061 90.833 17.2881 90.833 17.4691ZM126 17.4661C126 17.5391 126.295 17.8871 126.656 18.2401C128.317 19.8611 128.364 20.4251 128.3 37.9541L128.248 51.9171L127.865 52.8671C127.654 53.3901 127.142 54.1961 126.726 54.6591L125.969 55.5001H133.651C137.876 55.5001 141.333 55.4611 141.333 55.4141C141.333 55.3671 141.011 54.9331 140.617 54.4491C139.289 52.8191 139.25 52.5451 139.25 44.8661V38.1481L144.316 38.1541C147.103 38.1571 149.412 38.1901 149.449 38.2261C149.654 38.4321 149.476 51.6461 149.257 52.4761C149.006 53.4261 148.352 54.4971 147.719 54.9951C147.507 55.1621 147.333 55.3431 147.333 55.3991C147.333 55.4551 150.783 55.5001 155 55.5001C159.217 55.5001 162.667 55.4531 162.667 55.3951C162.667 55.3381 162.407 55.0031 162.091 54.6531C160.505 52.8981 160.51 52.9561 160.51 36.4171C160.51 19.6351 160.477 19.9851 162.289 17.9791L162.872 17.3331H155.103C150.83 17.3331 147.333 17.3791 147.333 17.4341C147.333 17.4891 147.67 17.9091 148.082 18.3671C149.32 19.7441 149.379 20.0871 149.488 26.5631C149.551 30.3021 149.526 32.2311 149.415 32.2741C149.322 32.3091 146.997 32.3191 144.248 32.2941L139.25 32.2501L139.2 27.8331C139.126 21.2191 139.382 19.7451 140.889 18.1351C141.206 17.7971 141.423 17.4781 141.371 17.4271C141.223 17.2791 126 17.3181 126 17.4661ZM176.5 17.4321C176.5 17.4881 176.832 17.9041 177.238 18.3551C179.047 20.3671 179.128 19.9011 174.918 31.6671C173.207 36.4491 172.081 39.6051 169.416 47.0831C167.79 51.6471 166.883 53.3431 165.178 55.0001L164.75 55.4171L170.651 55.4601C173.896 55.4851 176.588 55.4671 176.633 55.4221C176.678 55.3771 176.411 55.0101 176.039 54.6061C174.344 52.7681 174.39 51.7021 176.393 46.3331L177.294 43.9171H183.272H189.25L190.391 47.3301C192.043 52.2721 192.028 52.8331 190.201 54.7081L189.429 55.5001H197.798C202.401 55.5001 206.167 55.4541 206.167 55.3971C206.167 55.3411 205.757 54.8521 205.256 54.3111C203.399 52.3051 202.821 51.1731 200.501 45.0001C198.329 39.2181 195.565 31.9281 195.1 30.7501C194.882 30.2001 194.211 28.4381 193.608 26.8331C193.004 25.2291 191.959 22.4541 191.284 20.6671L190.057 17.4171L183.279 17.3731C179.55 17.3491 176.5 17.3761 176.5 17.4321ZM292.933 17.4741C292.885 17.5511 293.112 17.8691 293.438 18.1821C295.119 19.7961 295.083 19.3971 295.083 36.8331V51.9171L294.699 52.8671C294.488 53.3901 293.975 54.1961 293.559 54.6591L292.802 55.5001H300.581H308.359L307.593 54.6251C307.172 54.1441 306.66 53.3371 306.455 52.8331L306.083 51.9171L306.033 37.5001C305.972 20.0161 305.989 19.8261 307.748 18.1191C308.07 17.8061 308.333 17.5011 308.333 17.4411C308.333 17.2791 293.033 17.3111 292.933 17.4741ZM322 17.4301C322 17.4851 322.368 17.9431 322.817 18.4471C324.27 20.0761 324.262 20.8451 322.752 25.0831C322.328 26.2751 321.09 29.7621 320.001 32.8331C312.936 52.7641 313.077 52.4221 311.014 54.6531C310.64 55.0581 310.333 55.4141 310.333 55.4441C310.333 55.4751 312.996 55.5001 316.25 55.5001C319.504 55.5001 322.167 55.4381 322.167 55.3621C322.167 55.2871 321.969 55.0431 321.727 54.8211C319.847 53.0951 319.873 51.7831 321.897 46.3331L322.794 43.9171H328.772H334.75L335.39 45.7501C337.569 51.9921 337.603 52.6971 335.817 54.5851L334.952 55.5001H343.309C347.906 55.5001 351.667 55.4401 351.667 55.3661C351.667 55.2921 351.398 54.9741 351.071 54.6581C350.27 53.8861 348.969 52.1081 348.452 51.0781C347.97 50.1181 347.479 48.8781 345.244 42.9771C344.363 40.6521 342.663 36.1621 341.465 33.0001C339.282 27.2371 337.643 22.9161 336.282 19.3331L335.553 17.4171L328.777 17.3731C325.05 17.3491 322 17.3751 322 17.4301ZM375.83 22.6781C384.437 24.0741 388.282 40.9961 381.526 47.7521C376.396 52.8811 368.447 50.6221 365.684 43.2501C361.446 31.9441 366.743 21.2041 375.83 22.6781ZM183.805 29.2081C184.175 30.2401 184.825 32.0211 185.249 33.1671C186.693 37.0651 187.159 38.3961 187.101 38.4551C186.969 38.5871 179.251 38.5021 179.206 38.3681C179.179 38.2881 179.764 36.4661 180.506 34.3201C181.248 32.1731 182.093 29.7231 182.386 28.8761C183.045 26.9631 182.995 26.9511 183.805 29.2081ZM328.716 27.6251C328.764 27.7851 329.416 29.5671 330.164 31.5831C332.173 37.0001 332.666 38.3901 332.601 38.4551C332.466 38.5891 324.75 38.5001 324.705 38.3641C324.677 38.2821 325.176 36.7221 325.813 34.8991C326.45 33.0751 327.296 30.6271 327.693 29.4581C328.417 27.3271 328.553 27.0841 328.716 27.6251ZM48.434 33.3531C48.116 34.7631 47.766 36.3851 47.656 36.9581C47.454 38.0131 47.403 38.0801 46.93 37.8991C46.62 37.7801 46.563 36.6701 46.853 36.3801C46.956 36.2781 47.061 35.8031 47.086 35.3241C47.121 34.6771 47.35 34.0171 47.983 32.7371C48.451 31.7911 48.833 30.9261 48.833 30.8151C48.833 30.7031 48.873 30.6511 48.922 30.7001C48.971 30.7491 48.752 31.9431 48.434 33.3531ZM39.181 33.1111C39.713 34.1751 39.91 34.7751 39.929 35.3891C39.947 35.9441 40.047 36.2891 40.228 36.4211C40.622 36.7091 40.581 37.6121 40.164 37.8351C39.91 37.9711 39.812 37.9621 39.762 37.7991C39.604 37.2881 38.333 31.9011 38.333 31.7441C38.333 31.4951 38.536 31.8221 39.181 33.1111ZM5.03503 41.7301C3.90803 43.6451 2.77103 44.8051 1.57103 45.2641C0.744029 45.5791 0.767028 45.6921 1.72203 45.9971C2.69503 46.3081 3.97803 47.7331 5.01403 49.6521C6.06603 51.6011 5.97303 51.5421 6.48503 50.5781C7.19503 49.2391 8.50603 48.3441 10.5 47.8371L11.583 47.5621V45.7531C11.583 43.9661 11.578 43.9431 11.167 43.8281C9.32503 43.3101 8.79403 43.0971 8.07303 42.5851C7.56503 42.2251 7.01903 41.6211 6.64703 41.0081L6.04503 40.0141L5.03503 41.7301ZM80.782 40.4641C80.542 41.6661 78.695 43.1121 76.75 43.6201L75.583 43.9261V45.7501V47.5741L76.716 47.8711C78.728 48.3981 80.225 49.4671 80.767 50.7651C81.085 51.5261 81.206 51.4861 81.68 50.4631C82.773 48.1041 84.374 46.2871 85.763 45.8291L86.334 45.6411L85.338 45.1431C84.072 44.5101 82.816 43.1391 81.863 41.3511C81.083 39.8861 80.924 39.7561 80.782 40.4641ZM10.333 48.4801C8.97903 48.9171 8.48903 49.2161 7.64803 50.1151C6.19203 51.6721 6.17803 51.7711 6.31903 60.1671C6.39403 64.6041 6.08003 66.0321 4.62803 67.8781L4.13403 68.5051L5.27603 68.4011C7.89403 68.1621 9.87003 68.9581 15 72.3161C19.857 75.4961 22.131 75.6591 24.735 73.0151L25.51 72.2281L24.13 71.1611C17.191 65.7921 12.671 57.7841 11.737 49.2081C11.611 48.0501 11.632 48.0611 10.333 48.4801ZM75.438 48.4221C75.38 48.5711 75.333 48.9371 75.333 49.2341C75.333 56.0541 69.255 66.7951 62.875 71.2501C61.45 72.2451 61.478 72.1191 62.458 73.0981C65.138 75.7791 67.067 75.5581 72.747 71.9211C77.486 68.8871 79.935 67.9811 82.164 68.4381C83.033 68.6161 83.192 68.5341 82.727 68.1481C82.246 67.7491 81.678 66.7081 81.217 65.3781L80.767 64.0831L80.837 60.0001C80.979 51.7461 80.973 51.7011 79.517 50.1221C78.461 48.9761 75.671 47.8131 75.438 48.4221ZM182.083 58.8131C179.236 59.5651 177.839 62.4411 179.096 64.9631C181.158 69.1011 187.576 67.6781 187.574 63.0831C187.573 60.2791 184.774 58.1031 182.083 58.8131ZM118.92 69.7591C116.51 71.1201 116.477 71.1521 117.123 71.5241C117.565 71.7771 117.674 71.7551 119.824 70.9731C122.508 69.9971 122.303 70.1781 121.763 69.2581C121.226 68.3411 121.523 68.2891 118.92 69.7591ZM274.959 69.7991C272.429 71.2171 272.445 71.2011 273.199 71.5131C273.727 71.7321 276.27 71.0291 277.879 70.2201L278.341 69.9881L277.829 69.2441C277.548 68.8351 277.302 68.5031 277.284 68.5071C277.265 68.5111 276.219 69.0921 274.959 69.7991ZM167.888 69.8041C165.77 71.1941 165.848 71.0991 166.549 71.4341C167.129 71.7111 167.161 71.7061 168.461 71.1831L169.782 70.6501L171.062 71.1581C172.57 71.7571 172.518 71.7521 173.164 71.3591L173.67 71.0521L171.734 69.8591C169.441 68.4461 169.947 68.4531 167.888 69.8041ZM221.361 69.8601L219.472 71.0411L219.944 71.3531C220.554 71.7551 220.53 71.7571 222.016 71.1591L223.282 70.6501L224.562 71.1581C226.063 71.7541 226.107 71.7581 226.719 71.3551L227.188 71.0461L225.253 69.8561C224.189 69.2021 223.303 68.6691 223.284 68.6721C223.265 68.6751 222.4 69.2101 221.361 69.8601ZM326.462 69.7991C324.56 70.9881 324.516 71.0461 325.2 71.4611C325.62 71.7151 325.709 71.7021 326.997 71.1981L328.352 70.6681L329.634 71.1661C331.147 71.7551 331.117 71.7521 331.723 71.3531L332.196 71.0411L330.283 69.8541C329.231 69.2011 328.343 68.6701 328.31 68.6741C328.277 68.6791 327.446 69.1851 326.462 69.7991ZM25.223 73.3681C24.007 74.6141 22.705 75.2201 21.209 75.2371C20.544 75.2441 20.001 75.2691 20 75.2931C20 75.3171 20.376 75.9981 20.836 76.8061C22.077 78.9891 22.39 79.9921 22.282 81.4471L22.194 82.6441L22.906 82.1001C23.968 81.2901 24.909 81.0831 27.541 81.0831C28.802 81.0831 29.833 81.0441 29.833 80.9971C29.833 80.9501 29.658 80.6501 29.444 80.3301C28.628 79.1151 28.417 77.2101 28.915 75.5681C29.272 74.3911 29.31 74.4521 27.598 73.4551L26.03 72.5421L25.223 73.3681ZM59.566 73.4501C58.754 73.9351 58.029 74.3511 57.955 74.3761C57.881 74.4011 57.94 74.7581 58.086 75.1691C58.703 76.9101 58.555 79.0481 57.733 80.2591C57.513 80.5831 57.333 80.8731 57.333 80.9031C57.333 80.9341 58.44 80.9961 59.792 81.0411C62.487 81.1321 63.27 81.3241 64.32 82.1561L64.944 82.6501L64.871 81.3671C64.782 79.7931 65.099 78.7861 66.323 76.7511C66.787 75.9801 67.167 75.3271 67.166 75.3001C67.166 75.2721 66.623 75.2501 65.958 75.2501C64.447 75.2501 63.29 74.7291 61.957 73.4481L61.042 72.5691L59.566 73.4501ZM96.343 72.9141C92.357 73.8221 89.994 77.1121 90.637 80.8601C91.417 85.4101 96.136 87.5261 102.462 86.1601L103.34 85.9711L103.295 82.6941L103.25 79.4171L101.208 79.3701C99.046 79.3201 99.024 79.3301 99.422 80.1281C99.617 80.5181 99.667 81.0911 99.631 82.5281L99.583 84.4171L98.634 84.4661C95.857 84.6121 93.929 81.1121 94.823 77.5521C95.452 75.0511 98.52 73.9831 101.18 75.3401C102.157 75.8381 102.186 75.8091 102.132 74.3861C102.084 73.1231 102.077 73.1051 101.583 72.9631C100.614 72.6861 97.475 72.6571 96.343 72.9141ZM132.234 72.9141C128.463 73.7351 126.029 77.1201 126.625 80.7161C127.985 88.9241 141.201 88.3521 141.79 80.0591C142.147 75.0341 137.717 71.7211 132.234 72.9141ZM167.843 72.9261C163.809 73.8011 161.441 77.4031 162.34 81.2991C164.039 88.6651 176.113 88.1951 177.348 80.7151C178.217 75.4521 173.609 71.6761 167.843 72.9261ZM252.459 72.9101C249.416 73.5771 247.069 75.9121 246.695 78.6471C245.9 84.4541 251.082 87.7421 258.516 86.1481L259.333 85.9721V82.6531V79.3331H257.361C255.207 79.3331 255.061 79.3761 255.423 79.8921C255.606 80.1541 255.667 80.7701 255.667 82.3701V84.5001H254.719C251.559 84.5001 249.567 80.0391 251.254 76.7401C252.344 74.6091 254.615 74.2111 257.875 75.5801C258.139 75.6911 258.167 75.5751 258.167 74.3761V73.0491L257.01 72.8581C255.554 72.6171 253.7 72.6391 252.459 72.9101ZM288.017 73.0081C282.613 74.4231 280.766 80.6971 284.639 84.4781C288.567 88.3131 295.992 86.7221 297.595 81.7011C299.385 76.0941 294.201 71.3891 288.017 73.0081ZM231.41 73.0111C231.333 73.1361 230.667 75.5421 230.667 75.6971C230.667 75.7631 230.985 75.6721 231.375 75.4961C231.828 75.2901 232.459 75.1731 233.125 75.1701L234.167 75.1671V80.0581C234.167 84.7441 234.057 86.0001 233.65 86.0001C233.568 86.0001 233.5 86.0751 233.5 86.1671C233.5 86.2711 234.472 86.3331 236.083 86.3331C237.504 86.3331 238.667 86.3041 238.667 86.2681C238.667 86.2321 238.518 85.8761 238.337 85.4771C238.033 84.8081 238.007 84.3721 238.004 79.9801L238 75.2091L238.625 75.1111C239.329 75.0001 240.384 75.1961 240.759 75.5071C240.896 75.6211 241.047 75.6751 241.095 75.6271C241.241 75.4811 241.795 73.0011 241.685 72.9851C241.19 72.9151 231.455 72.9391 231.41 73.0111ZM327.958 72.9601C325.873 72.9861 324.169 73.0611 324.172 73.1281C324.175 73.1951 324.287 73.3961 324.422 73.5741C324.779 74.0461 324.774 85.0411 324.417 85.6671C324.286 85.8961 324.176 86.1411 324.173 86.2111C324.169 86.2811 326.173 86.3191 328.625 86.2941L333.083 86.2501L333.439 84.8911L333.796 83.5331L332.939 83.9311C332.242 84.2561 331.812 84.3301 330.614 84.3321C328.467 84.3341 328.5 84.3691 328.5 82.0771V80.1671H329.546C330.223 80.1671 330.723 80.2581 330.963 80.4261L331.333 80.6861V79.4261V78.1671H329.911H328.488L328.536 76.5421L328.583 74.9171L329.889 74.9481C330.745 74.9691 331.33 75.0691 331.591 75.2401C331.809 75.3831 332.032 75.5001 332.084 75.5001C332.256 75.5001 332.089 72.9441 331.917 72.9291C331.825 72.9211 330.044 72.9351 327.958 72.9601ZM334.667 73.0001C334.592 73.0461 334.407 73.5711 334.256 74.1671C334.106 74.7631 333.945 75.3791 333.898 75.5371C333.822 75.7971 333.884 75.7921 334.574 75.4871C335.133 75.2401 335.61 75.1641 336.375 75.2001L337.417 75.2501V80.1671C337.417 84.5221 337.383 85.1481 337.125 85.6511C336.965 85.9631 336.833 86.2441 336.833 86.2761C336.833 86.3071 337.958 86.3331 339.333 86.3331C341.985 86.3331 342.045 86.3121 341.542 85.5441C341.284 85.1501 341.244 84.5291 341.199 80.1531L341.149 75.2071L341.866 75.1061C342.653 74.9941 343.702 75.1831 344.092 75.5071C344.405 75.7671 344.395 75.7831 344.636 74.5831C344.746 74.0331 344.877 73.4331 344.927 73.2501C345.014 72.9301 335.173 72.6901 334.667 73.0001ZM105.667 73.0581C105.667 73.0891 105.798 73.3711 105.958 73.6831C106.218 74.1891 106.25 74.8351 106.25 79.6671C106.25 84.4981 106.218 85.1451 105.958 85.6511C105.798 85.9631 105.667 86.2441 105.667 86.2761C105.667 86.3071 106.792 86.3331 108.167 86.3331C109.542 86.3331 110.667 86.2931 110.667 86.2441C110.667 86.1951 110.535 85.9551 110.375 85.7101C109.927 85.0271 109.931 74.1351 110.379 73.4511L110.674 73.0001H108.171C106.793 73.0001 105.667 73.0261 105.667 73.0581ZM116.074 73.3701C116.525 74.0141 116.454 74.3331 114.923 78.5831C114.494 79.7751 113.844 81.6121 113.479 82.6671C113.114 83.7211 112.595 84.9451 112.325 85.3861C112.054 85.8281 111.833 86.2211 111.833 86.2611C111.833 86.3011 112.658 86.3331 113.667 86.3331C114.675 86.3331 115.5 86.2981 115.5 86.2561C115.5 86.2131 115.377 85.9201 115.226 85.6041C114.962 85.0501 114.969 84.9821 115.422 83.6811L115.891 82.3331H118.088H120.285L120.643 83.5421C121.065 84.9671 121.084 85.3261 120.755 85.7601C120.337 86.3131 120.428 86.3331 123.25 86.3331C126.064 86.3331 126.258 86.2851 125.65 85.7351C125.146 85.2791 124.943 84.8341 123.496 81.0131C122.782 79.1271 121.816 76.5771 121.349 75.3461C120.882 74.1161 120.5 73.0841 120.5 73.0541C120.5 73.0241 119.446 73.0001 118.157 73.0001H115.814L116.074 73.3701ZM148.121 73.5421C148.568 74.3611 148.572 85.0271 148.125 85.7101C147.965 85.9551 147.833 86.1951 147.833 86.2441C147.833 86.2931 148.958 86.3331 150.333 86.3331C151.708 86.3331 152.833 86.3041 152.833 86.2691C152.833 86.2341 152.721 85.9901 152.584 85.7271C152.395 85.3651 152.335 84.6371 152.334 82.7031L152.333 80.1551L154.125 80.2031L155.917 80.2501L155.9 82.7831C155.886 84.8351 155.83 85.3961 155.608 85.7361C155.457 85.9661 155.333 86.1951 155.333 86.2441C155.333 86.2931 156.458 86.3331 157.833 86.3331C159.208 86.3331 160.331 86.2771 160.327 86.2081C160.324 86.1401 160.214 85.8961 160.083 85.6671C159.726 85.0411 159.721 74.0461 160.078 73.5741C160.494 73.0231 160.403 73.0001 157.833 73.0001C156.458 73.0001 155.333 73.0401 155.333 73.0891C155.333 73.1381 155.449 73.3551 155.591 73.5711C155.782 73.8631 155.857 74.4931 155.882 76.0241L155.917 78.0831L154.125 78.1311L152.333 78.1781V76.0371C152.333 74.4131 152.392 73.8191 152.578 73.5741C152.994 73.0231 152.903 73.0001 150.329 73.0001H147.825L148.121 73.5421ZM179.527 73.6451C179.991 74.5821 179.93 85.2661 179.458 85.7881C178.981 86.3151 179.06 86.3331 181.75 86.3331C184.44 86.3331 184.519 86.3151 184.042 85.7881C183.57 85.2661 183.509 74.5821 183.973 73.6451L184.292 73.0001H181.75H179.208L179.527 73.6451ZM190.667 73.0641C190.667 73.1001 190.779 73.3431 190.916 73.6061C191.276 74.2961 191.277 85.0371 190.917 85.6671C190.786 85.8961 190.676 86.1401 190.673 86.2081C190.669 86.2771 191.8 86.3331 193.186 86.3331C196.007 86.3331 195.787 86.4711 195.258 85.0321C195.037 84.4281 195.002 83.5641 195.039 79.6151L195.083 74.9171L195.5 74.9761C197.692 75.2871 198.08 78.8101 196.074 80.1881L195.583 80.5251L197.015 80.4601C201.795 80.2451 203.145 74.5641 198.731 73.2361C198.016 73.0211 190.667 72.8641 190.667 73.0641ZM203.239 73.4241C203.645 74.0431 203.663 85.1421 203.26 85.7591C203.117 85.9771 203 86.1951 203 86.2441C203 86.2931 204.125 86.3331 205.5 86.3331C206.875 86.3331 207.997 86.2771 207.994 86.2081C207.991 86.1401 207.881 85.8961 207.75 85.6671C207.573 85.3571 207.51 84.5971 207.506 82.7081L207.5 80.1671H209.333H211.167V82.5481C211.167 84.6001 211.121 85.0201 210.833 85.5831C210.65 85.9431 210.5 86.2591 210.5 86.2851C210.5 86.3121 211.625 86.3331 213 86.3331C214.375 86.3331 215.5 86.2931 215.5 86.2441C215.5 86.1951 215.369 85.9551 215.208 85.7101C214.945 85.3081 214.917 84.7171 214.917 79.6671C214.917 74.6161 214.945 74.0251 215.208 73.6241C215.369 73.3791 215.5 73.1381 215.5 73.0891C215.5 73.0401 214.375 73.0001 213 73.0001C211.625 73.0001 210.5 73.0401 210.5 73.0891C210.5 73.1381 210.628 73.3741 210.785 73.6131C211.003 73.9461 211.086 74.5321 211.138 76.1071L211.207 78.1671H209.353H207.5V76.0321C207.5 74.4131 207.559 73.8191 207.745 73.5741C208.161 73.0231 208.07 73.0001 205.481 73.0001H202.962L203.239 73.4241ZM221.017 73.4871L221.384 73.9841L220.423 76.7841C218.381 82.7341 217.581 84.8341 217.07 85.5871C216.848 85.9141 216.667 86.2161 216.667 86.2571C216.667 86.2991 217.529 86.3331 218.583 86.3331C220.465 86.3331 220.75 86.2481 220.25 85.8331C219.901 85.5441 219.938 84.8001 220.366 83.4701L220.732 82.3331H222.913H225.094L225.543 83.6671C225.991 84.9981 225.982 85.6191 225.51 85.9101C224.979 86.2381 225.557 86.3331 228.083 86.3331C229.596 86.3331 230.833 86.2911 230.833 86.2401C230.833 86.1891 230.613 85.8701 230.345 85.5321C230.051 85.1621 229.315 83.4871 228.501 81.3331C227.755 79.3621 226.927 77.1881 226.661 76.5001C226.394 75.8131 225.997 74.7621 225.78 74.1671L225.383 73.0831L223.017 73.0371L220.65 72.9911L221.017 73.4871ZM262.027 73.6451C262.491 74.5821 262.43 85.2661 261.958 85.7881C261.482 86.3141 261.561 86.3331 264.167 86.3331C265.542 86.3331 266.664 86.2771 266.661 86.2081C266.658 86.1401 266.548 85.8961 266.417 85.6671C265.978 84.8991 266.063 74.0101 266.512 73.4391L266.858 73.0001H264.283H261.708L262.027 73.6451ZM272.194 73.5011L272.571 74.0111L271.967 75.7971C270.212 80.9901 268.767 84.8281 268.327 85.4631C268.056 85.8551 267.833 86.2121 267.833 86.2551C267.833 86.2981 268.696 86.3331 269.75 86.3331C271.732 86.3331 271.822 86.3021 271.411 85.7601C271.076 85.3171 271.102 84.9221 271.557 83.5741L271.947 82.4171L274.128 82.3701L276.31 82.3241L276.772 83.7421L277.234 85.1611L276.867 85.6571C276.665 85.9301 276.5 86.1941 276.5 86.2431C276.5 86.2931 277.737 86.3331 279.25 86.3331C280.762 86.3331 282 86.2981 282 86.2551C282 86.2121 281.776 85.8551 281.503 85.4631C281.229 85.0711 280.437 83.2501 279.742 81.4171C277.799 76.2891 277.175 74.6491 276.854 73.8331L276.559 73.0831L274.188 73.0371L271.817 72.9911L272.194 73.5011ZM302.667 73.0621C302.667 73.0971 302.845 73.4531 303.062 73.8541C303.28 74.2551 304.271 76.7581 305.266 79.4171C307.382 85.0711 307.529 85.2981 309.619 86.1491C311.171 86.7811 310.813 87.2691 312.662 82.0001C314.901 75.6211 315.61 73.6211 315.747 73.2921C315.859 73.0241 315.72 73.0001 314.089 73.0001H312.309L312.655 73.4391C313.175 74.1001 313.095 74.6081 311.922 78.0871C310.622 81.9421 310.513 82.2351 310.412 82.1341C310.257 81.9791 307.333 73.5871 307.333 73.2971C307.333 73.0261 307.126 73.0001 305 73.0001C303.717 73.0001 302.667 73.0281 302.667 73.0621ZM317.005 73.1251C317.008 73.1941 317.121 73.3961 317.255 73.5741C317.613 74.0461 317.608 85.0411 317.25 85.6671C317.119 85.8961 317.009 86.1401 317.006 86.2081C317.003 86.2771 318.125 86.3331 319.5 86.3331C320.875 86.3331 322 86.2931 322 86.2441C322 86.1951 321.869 85.9551 321.708 85.7101C321.261 85.0261 321.264 74.1341 321.712 73.4511L322.008 73.0001H319.504C318.127 73.0001 317.002 73.0561 317.005 73.1251ZM349.833 73.1121C349.833 73.1731 349.953 73.3561 350.099 73.5181C350.736 74.2211 350.819 74.9361 350.819 79.7501C350.819 83.5251 350.77 84.5441 350.565 85.0831C350.046 86.4471 349.924 86.3331 351.911 86.3331C352.892 86.3331 353.665 86.2771 353.63 86.2081C353.01 85.0041 352.993 84.8621 353.038 81.3991L353.083 77.9691L353.75 78.7991C354.117 79.2551 355.014 80.4061 355.744 81.3561C358.232 84.5931 360.062 86.1151 362.042 86.5921L362.5 86.7031L362.504 81.3101C362.509 75.2411 362.569 74.3121 363.011 73.5421L363.322 73.0001H361.469C359.716 73.0001 359.629 73.0161 359.874 73.2921C360.415 73.9001 360.88 81.1971 360.375 81.1571C360.306 81.1511 358.825 79.3151 357.083 77.0761L353.917 73.0041L351.875 73.0021C350.752 73.0011 349.833 73.0501 349.833 73.1121ZM368.528 73.2871C369.035 73.8771 368.985 74.1851 367.845 77.4601C365.515 84.1531 364.92 85.6571 364.502 85.9151C364.015 86.2161 364.505 86.3331 366.25 86.3331C368.132 86.3331 368.416 86.2481 367.917 85.8331C367.568 85.5441 367.605 84.8001 368.033 83.4701L368.399 82.3331H370.583H372.768L373.134 83.4701C373.562 84.8001 373.599 85.5441 373.25 85.8331C372.73 86.2641 373.075 86.3331 375.75 86.3331C377.262 86.3331 378.5 86.2911 378.5 86.2401C378.5 86.1891 378.278 85.8701 378.006 85.5321C377.53 84.9381 377.119 83.9311 374.324 76.5001L373.039 73.0831L370.656 73.0371C368.385 72.9931 368.285 73.0041 368.528 73.2871ZM380.548 73.6851C380.869 74.3361 380.876 74.4641 380.677 76.2271C380.13 81.0641 379.52 85.1451 379.27 85.6271C379.122 85.9151 379 86.1911 379 86.2421C379 86.2921 379.787 86.3331 380.75 86.3331C382.464 86.3331 382.743 86.2431 382.261 85.8421C381.768 85.4331 381.784 84.7961 382.436 78.9581C382.59 77.5831 382.643 77.6591 384.082 81.2741C384.846 83.1941 385.576 84.7651 385.848 85.0741C386.458 85.7691 387.975 86.6071 388.073 86.3031C388.362 85.4041 389.628 81.2751 390.03 79.9171C390.806 77.2981 390.741 77.1841 391.338 82.2101C391.639 84.7391 391.646 85.0591 391.418 85.6051C391.28 85.9361 391.167 86.2361 391.167 86.2701C391.167 86.3051 392.292 86.3331 393.667 86.3331C395.941 86.3331 396.511 86.2321 396.004 85.9191C395.21 85.4291 393.913 74.0781 394.567 73.3521L394.885 73.0001H392.465H390.045L389.535 74.6251C389.255 75.5191 388.712 77.2511 388.329 78.4751C387.947 79.6991 387.576 80.6361 387.506 80.5581C387.436 80.4801 386.761 78.8791 386.005 77.0001C385.249 75.1211 384.561 73.4521 384.476 73.2921C384.342 73.0381 384.054 73.0001 382.265 73.0001H380.208L380.548 73.6851ZM29.501 75.0801C28.05 78.8961 29.304 80.8611 35.118 83.8821C40.858 86.8641 42.483 88.2431 43.409 90.9171C43.502 91.1861 43.628 91.0271 44.071 90.0831C45.1 87.8901 46.885 86.5031 52.115 83.8321C57.495 81.0841 58.832 79.1741 57.832 75.6671C57.517 74.5621 57.481 74.5501 56.221 75.1191C48.699 78.5121 37.931 78.4871 30.76 75.0601C29.739 74.5721 29.694 74.5721 29.501 75.0801ZM135.13 74.9261C137.433 75.8871 138.602 80.1031 137.282 82.6841C135.984 85.2211 132.627 85.1081 131.292 82.4841C129.238 78.4421 131.742 73.5101 135.13 74.9261ZM170.948 75.0151C173.84 76.4151 174.354 82.3321 171.728 83.9971C169.129 85.6451 166.473 83.5951 166.214 79.7411C165.972 76.1361 168.353 73.7591 170.948 75.0151ZM291.504 75.0491C293.392 76.0481 294.437 79.5961 293.592 82.1411C292.565 85.2331 288.759 85.3601 287.29 82.3501C285.26 78.1921 288.111 73.2551 291.504 75.0491ZM118.708 78.2371C119.517 80.4801 119.567 80.3331 118 80.3331C117.267 80.3331 116.667 80.2851 116.667 80.2251C116.667 79.9641 117.89 76.5001 117.982 76.5021C118.038 76.5031 118.365 77.2841 118.708 78.2371ZM223.838 78.9581L224.324 80.3331H222.912C222.135 80.3331 221.5 80.3101 221.5 80.2811C221.5 80.2001 222.441 77.4741 222.661 76.9171L222.859 76.4171L223.106 77.0001C223.242 77.3211 223.571 78.2021 223.838 78.9581ZM274.801 78.3331C275.077 79.1121 275.355 79.8811 275.419 80.0421C275.525 80.3061 275.401 80.3331 274.101 80.3331C273.312 80.3331 272.667 80.3151 272.667 80.2921C272.667 80.2591 273.373 78.2381 273.933 76.6671C274.054 76.3271 274.165 76.5391 274.801 78.3331ZM371.583 79.2081L371.993 80.3331H370.58C369.803 80.3331 369.167 80.3101 369.167 80.2811C369.167 80.1981 370.111 77.4651 370.329 76.9171L370.528 76.4171L370.851 77.2501C371.029 77.7081 371.358 78.5901 371.583 79.2081ZM168.812 87.8761C168.236 88.3681 168.118 88.7641 168.343 89.4451C168.872 91.0481 171.333 90.6361 171.333 88.9441C171.333 87.7441 169.751 87.0731 168.812 87.8761ZM221.821 87.9871C220.611 89.1971 221.921 90.9651 223.565 90.3401C224.099 90.1371 224.561 89.2651 224.423 88.7181C224.118 87.5001 222.704 87.1031 221.821 87.9871ZM327.513 87.9311C326.814 88.5201 326.804 89.3291 327.487 90.0131C328.268 90.7931 329.43 90.5851 329.907 89.5801C330.611 88.0981 328.798 86.8501 327.513 87.9311Z" fill="#AB2B2C"/>
</svg>
